<svg width="510" height="542" viewBox="0 0 510 542" fill="none" xmlns="http://www.w3.org/2000/svg">
<path d="M492.726 209.869C487.218 137.555 484.464 101.398 471.644 78.0049C434.94 11.0235 328.222 -4.90735 260.822 1.20175C170.59 9.37819 67.3649 64.6117 21.9268 171.254C-19.3428 268.115 -0.313181 377.755 61.8712 449.477C175.865 580.955 411.009 557.48 468.45 471.208C491.374 436.777 493.026 381.784 495.455 301.001C496.622 262.114 494.344 231.125 492.726 209.869Z" fill="#F4F7FA"/>
<path d="M449.488 44.2421C443.654 39.1028 434.804 36.3037 427.324 35.7385C374.298 31.7374 366.559 149.76 374.687 176.136C382.815 202.512 377.548 211.172 335.786 224.972C294.024 238.771 314.059 265.341 319.149 280.879C324.239 296.417 334.319 309.543 303.875 324.982C273.431 340.421 284.011 349.988 284.011 349.988C284.011 349.988 340.154 411.139 337.053 391.561C333.952 371.983 339.571 342.421 389.908 340.173C411.59 339.206 444.792 328.193 452.143 303.472C453.856 297.716 455.047 288.924 453.745 282.965C451.938 274.7 446.844 268.188 444.016 260.409C437.424 242.281 453.958 229.006 463.473 216.888C468.441 210.562 473.405 204.076 477.208 196.863C485.107 181.889 482.149 165.83 473.549 152.026C469.424 145.408 463.694 138.385 461.895 130.49C459.962 122.009 461.647 110.422 462.105 101.698C462.465 94.8551 463.078 88.0395 462.716 81.1793C462.047 68.423 459.24 52.8347 449.488 44.2421Z" fill="url(#paint0_linear_14_3410)"/>
<g opacity="0.8">
<g opacity="0.8">
<path opacity="0.8" d="M279.596 384.31C279.232 384.449 278.82 384.285 278.636 383.911C278.436 383.503 278.583 382.997 278.967 382.784C279.203 382.653 302.839 369.414 329.206 347.611C353.502 327.52 385.153 295.842 397.968 259.015C408.671 228.259 418.431 177.411 424.749 119.514C430.413 67.5965 431.308 29.1998 428.901 22.0725C428.753 21.6389 428.966 21.1607 429.373 21.004C429.781 20.8472 430.23 21.0736 430.377 21.5072C433.193 29.8463 431.406 72.9797 426.308 119.708C419.979 177.733 410.186 228.719 399.44 259.596C386.493 296.8 354.613 328.722 330.148 348.948C303.672 370.837 279.932 384.132 279.696 384.263C279.661 384.281 279.629 384.296 279.596 384.31Z" fill="white"/>
</g>
<g opacity="0.8">
<path opacity="0.8" d="M424.663 129.578C424.258 129.733 423.845 129.613 423.696 129.182C423.5 128.611 403.732 71.9813 378.242 59.196C377.849 59.0004 377.691 58.5281 377.874 58.11C378.06 57.6919 378.531 57.5274 378.921 57.7229C404.995 70.8005 424.352 126.241 425.165 128.601C425.314 129.034 425.074 129.422 424.667 129.576C424.665 129.578 424.663 129.578 424.663 129.578Z" fill="white"/>
</g>
<g opacity="0.8">
<path opacity="0.8" d="M415.022 195.25C414.72 195.367 414.368 195.276 414.151 194.995C413.877 194.639 413.924 194.112 414.259 193.82C414.404 193.692 428.958 180.98 446.915 170.313C471.178 155.899 489.774 151.875 502.182 158.354C502.571 158.557 502.731 159.056 502.541 159.471C502.35 159.885 501.881 160.055 501.492 159.852C472.94 144.947 415.827 194.604 415.255 195.107C415.184 195.171 415.104 195.219 415.022 195.25Z" fill="white"/>
</g>
<g opacity="0.8">
<path opacity="0.8" d="M351.659 329.487C351.579 329.518 351.496 329.533 351.407 329.535C350.974 329.543 350.618 329.175 350.611 328.713C350.607 328.471 350.203 304.174 345.428 278.572C341.048 255.099 332.006 225.698 313.798 218.923C313.389 218.77 313.173 218.294 313.317 217.86C313.458 217.425 313.907 217.194 314.315 217.347C329.498 222.996 340.483 243.493 346.969 278.27C351.77 304.017 352.174 328.443 352.178 328.687C352.185 329.055 351.967 329.369 351.659 329.487Z" fill="white"/>
</g>
<g opacity="0.8">
<path opacity="0.8" d="M384.06 290.232C383.742 290.354 383.375 290.246 383.164 289.942C382.906 289.57 382.98 289.047 383.327 288.775C385.852 286.787 445.414 240.161 468.641 244.613C469.068 244.695 469.35 245.13 469.273 245.583C469.197 246.038 468.79 246.34 468.363 246.257C445.794 241.93 384.873 289.634 384.26 290.116C384.198 290.168 384.129 290.205 384.06 290.232Z" fill="white"/>
</g>
</g>
<path d="M496.026 218.076C492.171 211.138 484.732 205.315 477.873 202.089C429.245 179.218 384.459 287.49 383.725 315.239C382.99 342.987 375.282 349.239 331.6 347.178C287.917 345.116 298.326 377.338 298.179 393.794C298.031 410.249 303.345 426.232 269.791 429.792C236.236 433.352 243.151 446.164 243.151 446.164C243.151 446.164 276.551 523.937 279.854 504.396C283.157 484.855 297.839 459.062 345.92 475.086C366.629 481.986 401.373 483.587 416.147 462.974C419.588 458.173 423.502 450.33 424.169 444.254C425.094 435.826 422.371 427.862 422.18 419.523C421.737 400.088 441.515 393.554 454.319 385.58C461.003 381.419 467.736 377.102 473.608 371.686C485.799 360.441 488.12 344.265 484.414 328.177C482.636 320.463 479.475 311.789 480.291 303.711C481.167 295.036 486.435 284.738 489.638 276.693C492.151 270.384 494.894 264.19 496.734 257.605C500.16 245.354 502.474 229.674 496.026 218.076Z" fill="url(#paint1_linear_14_3410)"/>
<g opacity="0.8">
<g opacity="0.8">
<path opacity="0.8" d="M228.09 476.868C227.704 476.868 227.368 476.564 227.313 476.146C227.255 475.689 227.555 475.267 227.984 475.205C228.248 475.166 254.696 471.225 286.436 460.207C315.683 450.056 355.534 431.65 379.296 401.613C399.142 376.527 424.485 332.197 448.826 279.991C470.654 233.178 483.697 197.367 483.697 189.792C483.697 189.332 484.048 188.958 484.481 188.958C484.913 188.958 485.264 189.332 485.264 189.792C485.264 198.654 469.876 238.599 450.23 280.734C425.834 333.054 400.416 377.506 380.494 402.69C356.489 433.034 316.344 451.586 286.895 461.804C255.025 472.863 228.46 476.82 228.195 476.858C228.162 476.866 228.126 476.868 228.09 476.868Z" fill="white"/>
</g>
<g opacity="0.8">
<path opacity="0.8" d="M445.549 289.604C445.119 289.604 444.768 289.255 444.766 288.797C444.762 288.189 444.157 227.735 424.233 206.519C423.926 206.194 423.926 205.669 424.233 205.344C424.538 205.019 425.035 205.021 425.342 205.346C445.722 227.047 446.318 286.272 446.335 288.785C446.338 289.246 445.989 289.604 445.555 289.604C445.551 289.604 445.549 289.604 445.549 289.604Z" fill="white"/>
</g>
<g opacity="0.8">
<path opacity="0.8" d="M415.608 347.758C415.287 347.758 414.985 347.545 414.87 347.204C414.725 346.771 414.936 346.293 415.345 346.136C415.521 346.068 433.256 339.349 453.546 335.782C480.958 330.96 499.735 333.875 509.355 344.442C509.657 344.773 509.648 345.302 509.337 345.623C509.026 345.944 508.53 345.935 508.228 345.604C486.097 321.291 416.574 347.441 415.874 347.708C415.785 347.743 415.696 347.758 415.608 347.758Z" fill="white"/>
</g>
<g opacity="0.8">
<path opacity="0.8" d="M313.325 451.245C313.242 451.245 313.156 451.23 313.071 451.201C312.662 451.052 312.442 450.578 312.584 450.14C312.656 449.91 319.999 426.902 323.64 401.089C326.978 377.423 327.812 346.498 312.831 333.562C312.495 333.272 312.444 332.745 312.716 332.387C312.989 332.029 313.483 331.973 313.82 332.265C326.312 343.051 330.137 366.299 325.187 401.358C321.524 427.316 314.142 450.448 314.067 450.68C313.956 451.027 313.651 451.245 313.325 451.245Z" fill="white"/>
</g>
<g opacity="0.8">
<path opacity="0.8" d="M356.287 425.98C355.949 425.98 355.638 425.746 355.536 425.386C355.411 424.945 355.647 424.478 356.062 424.347C359.068 423.387 429.933 400.971 450.375 413.53C450.75 413.76 450.879 414.271 450.663 414.67C450.446 415.069 449.966 415.206 449.592 414.976C429.728 402.773 357.241 425.713 356.512 425.946C356.438 425.969 356.362 425.98 356.287 425.98Z" fill="white"/>
</g>
</g>
<path d="M333.019 23.0269L332.459 27.297C330.6 27.388 328.771 27.6435 326.991 28.0694L325.475 24.0857C325.062 22.9998 323.894 22.4829 322.866 22.9339L316.437 25.7543C315.408 26.2053 314.906 27.4558 315.317 28.5436L316.84 32.5777C315.282 33.6346 313.81 34.8308 312.439 36.1549L309.21 33.4874C308.338 32.7674 307.073 32.9454 306.384 33.8862L302.064 39.7708C301.372 40.7135 301.519 42.0646 302.392 42.7866L305.633 45.4695C304.769 47.1962 304.044 49.0196 303.459 50.9224L299.345 50.3475C298.24 50.1926 297.211 51.0269 297.047 52.2116L296.013 59.6331C295.847 60.8216 296.611 61.9134 297.718 62.0682L301.844 62.6451C301.893 64.6485 302.099 66.6191 302.464 68.5374L298.592 70.2563C297.549 70.7189 297.036 71.9984 297.447 73.1114L300.027 80.0916C300.439 81.2104 301.623 81.7389 302.67 81.2724L306.544 79.5457C307.518 81.2337 308.629 82.8248 309.861 84.3037L307.28 87.8732C306.582 88.8391 306.731 90.2212 307.614 90.9606L313.148 95.5831C314.033 96.3225 315.319 96.1367 316.015 95.1669L318.565 91.6207C320.194 92.544 321.917 93.3125 323.715 93.9261L323.135 98.3512C322.977 99.5629 323.754 100.672 324.87 100.827L331.856 101.803C332.974 101.959 334.005 101.102 334.161 99.89L334.725 95.4979C336.624 95.4108 338.491 95.1495 340.307 94.714L341.84 98.7712C342.265 99.8978 343.456 100.43 344.499 99.9597L351.015 97.0194C352.056 96.549 352.553 95.2579 352.125 94.1352L350.593 90.107C352.183 89.0133 353.681 87.7725 355.07 86.4001L358.255 89.0365C359.146 89.774 360.422 89.5882 361.106 88.6223L365.372 82.5984C366.054 81.6363 365.885 80.2639 364.996 79.5302L361.84 76.9248C362.7 75.1497 363.414 73.274 363.982 71.3209L367.926 71.8726C369.033 72.0274 370.048 71.1854 370.191 69.993L371.088 62.5521C371.231 61.3656 370.451 60.2777 369.346 60.1228L365.412 59.5731C365.33 57.5445 365.09 55.5545 364.687 53.6208L368.335 51.9948C369.361 51.5379 369.846 50.2759 369.421 49.1764L366.756 42.3162C366.33 41.2206 365.156 40.7018 364.131 41.1567L360.46 42.7866C359.46 41.1161 358.33 39.5404 357.074 38.0828L359.499 34.7128C360.173 33.7739 360.008 32.4325 359.131 31.7143L353.65 27.2293C352.774 26.5131 351.518 26.6892 350.842 27.6242L348.402 30.9981C346.784 30.1038 345.076 29.3605 343.292 28.7721L343.836 24.5348C343.985 23.3695 343.219 22.299 342.123 22.1461L335.275 21.1899C334.185 21.0408 333.172 21.8596 333.019 23.0269ZM308.876 57.6161C310.856 42.9511 323.495 32.6706 337.12 34.5734C350.746 36.4762 360.315 49.8597 358.484 64.544C356.643 79.3193 343.976 89.8011 330.202 87.879C316.427 85.9549 306.885 72.3701 308.876 57.6161Z" fill="#D8DEE8"/>
<path d="M228.015 20.7115L227.149 27.3142C224.275 27.4536 221.447 27.8485 218.694 28.5066L216.351 22.3472C215.711 20.667 213.906 19.8695 212.319 20.5663L202.377 24.9275C200.786 25.6263 200.01 27.5562 200.646 29.2422L203.002 35.479C200.594 37.1128 198.316 38.9614 196.198 41.0113L191.199 36.8863C189.852 35.7732 187.894 36.05 186.829 37.5018L180.15 46.5997C179.079 48.0573 179.306 50.1459 180.655 51.2628L185.667 55.413C184.333 58.0823 183.209 60.9026 182.304 63.843L175.943 62.9545C174.236 62.7164 172.645 64.0056 172.389 65.8368L170.791 77.3136C170.535 79.1525 171.716 80.8385 173.429 81.0766L179.808 81.967C179.884 85.0642 180.201 88.1129 180.768 91.0784L174.781 93.7361C173.167 94.4524 172.375 96.4287 173.011 98.1515L176.999 108.943C177.637 110.672 179.468 111.49 181.086 110.768L187.076 108.099C188.581 110.708 190.299 113.169 192.206 115.455L188.216 120.974C187.136 122.468 187.367 124.605 188.734 125.747L197.29 132.894C198.659 134.038 200.646 133.749 201.724 132.251L205.667 126.769C208.185 128.198 210.852 129.386 213.631 130.335L212.733 137.177C212.488 139.051 213.688 140.766 215.417 141.006L226.218 142.514C227.945 142.756 229.542 141.43 229.782 139.556L230.654 132.766C233.592 132.632 236.479 132.228 239.285 131.554L241.654 137.828C242.312 139.57 244.154 140.393 245.766 139.665L255.841 135.12C257.45 134.394 258.219 132.396 257.557 130.658L255.187 124.429C257.646 122.739 259.962 120.819 262.111 118.697L267.034 122.774C268.41 123.914 270.382 123.625 271.44 122.135L278.037 112.822C279.09 111.336 278.83 109.212 277.456 108.078L272.576 104.052C273.907 101.305 275.011 98.4051 275.887 95.3873L281.988 96.239C283.7 96.479 285.269 95.1763 285.491 93.3335L286.876 81.8277C287.098 79.9907 285.891 78.3105 284.184 78.0724L278.101 77.2226C277.976 74.0868 277.605 71.009 276.979 68.0202L282.622 65.5057C284.209 64.7992 284.96 62.848 284.298 61.1485L280.177 50.5408C279.519 48.847 277.703 48.0457 276.119 48.7483L270.446 51.2667C268.901 48.6825 267.15 46.2474 265.21 43.9961L268.959 38.7852C270.002 37.3354 269.748 35.2603 268.39 34.1492L259.915 27.2155C258.56 26.1082 256.617 26.3812 255.572 27.8272L251.798 33.0439C249.295 31.6618 246.653 30.512 243.897 29.6003L244.739 23.0479C244.97 21.2457 243.785 19.5926 242.092 19.3565L231.503 17.8776C229.814 17.6414 228.251 18.9093 228.015 20.7115ZM190.684 74.1932C193.744 51.5183 213.288 35.6223 234.354 38.5645C255.419 41.5068 270.215 62.1996 267.386 84.9054C264.54 107.749 244.955 123.958 223.659 120.983C202.361 118.01 187.605 97.0036 190.684 74.1932Z" fill="#D8DEE8"/>
<path d="M217.883 84.6478L171.571 494.542C170.876 500.688 174.854 506.197 180.427 506.786L373.327 529.337C385.143 530.119 391.613 523.69 392.344 517.155L440.967 81.3687C441.692 74.8706 435.895 68.9841 424.028 68.9841L229.374 73.3491C223.737 73.4517 218.574 78.5349 217.883 84.6478Z" fill="url(#paint2_linear_14_3410)"/>
<path d="M209.201 83.9437L162.634 495.888C161.936 502.065 165.928 507.603 171.52 508.195L371.502 529.397C377.772 530.061 383.518 525.231 384.251 518.664L433.146 80.6259C433.875 74.0928 429.27 68.8432 422.931 68.9574L220.732 72.5907C215.078 72.6894 209.895 77.7997 209.201 83.9437Z" fill="url(#paint3_linear_14_3410)"/>
<path d="M212.997 106.665L169.834 488.619C169.182 494.389 172.921 499.554 178.155 500.096L366.232 519.563C372.06 520.167 377.401 515.659 378.084 509.544L423.271 104.899C423.951 98.8173 419.676 93.8948 413.787 93.9625L223.78 96.117C218.492 96.1751 213.646 100.923 212.997 106.665Z" fill="#D8DEE8"/>
<path d="M313.853 83.6588C313.606 85.852 315.084 87.6076 317.156 87.5786C319.23 87.5515 321.114 85.7474 321.361 83.5504C321.608 81.3534 320.125 79.5977 318.05 79.6306C315.976 79.6635 314.098 81.4676 313.853 83.6588Z" fill="url(#paint4_linear_14_3410)"/>
<path d="M245.513 363.057C284.015 287.257 341.535 264.567 358.852 186.445C368.213 144.218 361.835 103.8 351.094 70.2464L422.935 68.9553C429.273 68.8411 433.878 74.0927 433.149 80.6238L384.254 518.661C383.521 525.231 377.775 530.061 371.505 529.395L214.299 512.729C213.134 444.808 228.348 396.845 245.513 363.057Z" fill="white"/>
<path d="M19.3369 127.414C19.3369 87.1359 52.3333 54.4901 91.9305 54.494C130.357 54.4979 160.683 85.4267 160.683 123.574C160.683 161.721 130.357 194.297 91.9305 196.389C52.3315 198.546 19.3369 167.692 19.3369 127.414Z" fill="url(#paint5_linear_14_3410)"/>
<path d="M23.6052 124.202C23.6052 83.9242 55.6473 51.2784 94.0974 51.2823C131.411 51.2862 160.861 82.215 160.861 120.362C160.861 158.509 131.411 191.085 94.0974 193.178C55.6454 195.334 23.6052 164.479 23.6052 124.202Z" fill="url(#paint6_linear_14_3410)"/>
<g opacity="0.5">
<path opacity="0.5" d="M34.5746 123.895C34.5746 90.0546 61.4938 62.6255 93.7995 62.6313C125.149 62.6352 149.892 88.6202 149.892 120.67C149.892 152.719 125.151 180.088 93.7995 181.846C61.4938 183.658 34.5746 157.735 34.5746 123.895Z" fill="white"/>
</g>
<path opacity="0.5" d="M91.5762 67.8307C122.926 67.8345 147.669 93.8195 147.669 125.869C147.669 133.49 146.256 140.84 143.702 147.65C147.658 139.45 149.894 130.273 149.894 120.67C149.894 88.6202 125.153 62.6352 93.8013 62.6313C68.8854 62.6294 47.1871 78.9513 38.5576 101.94C48.3288 81.7291 68.5836 67.8287 91.5762 67.8307Z" fill="white"/>
<path d="M67.0138 115.612V145.147C67.0138 153.686 73.76 160.422 82.0568 160.191L102.63 159.62C110.827 159.392 117.451 152.36 117.451 143.91V114.687L67.0138 115.612ZM85.9598 146.146L89.7828 133.81C88.1449 132.91 87.036 131.136 87.036 129.071C87.036 126.04 89.4247 123.533 92.366 123.475C95.3037 123.415 97.6833 125.819 97.6833 128.845C97.6833 130.906 96.5781 132.724 94.9456 133.695L98.7541 145.828L85.9598 146.146Z" fill="white"/>
<path d="M111.603 112.126C109.42 112.164 107.649 110.366 107.649 108.107C107.649 99.4255 100.805 92.457 92.3642 92.5731C83.8946 92.6893 76.9812 99.892 76.9812 108.628C76.9812 110.9 75.187 112.774 72.971 112.815C70.7531 112.854 68.9534 111.042 68.9534 108.765C68.9534 95.4689 79.4844 84.5244 92.366 84.3715C105.178 84.2186 115.549 94.8069 115.549 107.976C115.549 110.229 113.784 112.087 111.603 112.126Z" fill="white"/>
<path d="M159.253 280.584C159.253 280.584 157.853 274.998 158.846 273.569C159.837 272.141 165.899 266.431 165.317 268.293C164.734 270.155 163.86 271.396 163.86 271.396C163.86 271.396 167.124 273.01 165.025 275.43C162.927 277.851 162.225 278.409 162.109 280.583C161.994 282.756 160.653 283.502 159.253 280.584Z" fill="url(#paint7_linear_14_3410)"/>
<path d="M101.017 521.729C101.017 521.729 100.275 526.561 100.37 528.28C100.464 529.999 118.385 530.877 118.565 529.59C118.745 528.303 115.604 526.253 113.391 525.531C111.179 524.807 104.704 522.879 104.704 522.879L101.017 521.729Z" fill="url(#paint8_linear_14_3410)"/>
<path d="M105.366 516.913L104.796 522.922C104.796 522.922 102.714 524.387 100.88 523.257L99.9618 516.718L105.366 516.913Z" fill="url(#paint9_linear_14_3410)"/>
<path d="M69.0425 529.561C69.0425 529.561 68.3008 534.393 68.3953 536.112C68.4899 537.831 86.4106 538.71 86.5906 537.422C86.7724 536.135 83.6292 534.085 81.4169 533.363C79.2045 532.641 72.7292 530.711 72.7292 530.711L69.0425 529.561Z" fill="url(#paint10_linear_14_3410)"/>
<path d="M73.3934 524.745L72.8226 530.754C72.8226 530.754 70.7411 532.219 68.9069 531.088L67.9888 524.55L73.3934 524.745Z" fill="url(#paint11_linear_14_3410)"/>
<path d="M102.115 360.07C104.186 364.542 106.258 369.013 108.329 373.485C109.994 399.003 110.823 426.754 110.29 456.43C109.894 478.509 108.787 499.424 107.195 519.056C104.386 518.919 101.577 518.781 98.7686 518.644C94.7075 510.061 89.9137 497.059 89.472 481.008C89.012 464.266 93.7785 462.042 93.4768 446.012C93.0841 425.234 84.9018 419.69 80.5425 394.698C78.8755 385.14 77.7539 372.656 79.0864 357.511C86.7633 358.365 94.4384 359.219 102.115 360.07Z" fill="url(#paint12_linear_14_3410)"/>
<path opacity="0.3" d="M79.088 357.511C83.2328 357.972 87.3775 358.433 91.5241 358.894C98.9866 372.72 101.07 387.11 99.7592 393.477C97.9067 402.484 93.0057 405.368 93.2766 414.41C93.5438 423.357 98.4939 425.678 101.633 436.221C103.808 443.523 103.233 450.236 101.997 463.364C99.5065 489.808 93.5093 497.895 98.5321 506.565C99.9591 509.029 102.531 511.962 107.571 514.201C107.447 515.824 107.325 517.45 107.196 519.054C104.388 518.919 101.579 518.779 98.7702 518.644C94.7091 510.061 89.9153 497.059 89.4736 481.008C89.0136 464.266 93.7801 462.042 93.4784 446.012C93.0857 425.234 84.9034 419.692 80.5441 394.7C78.8771 385.142 77.7537 372.658 79.088 357.511Z" fill="url(#paint13_linear_14_3410)"/>
<path d="M90.9694 368.121C87.0809 390.699 83.6469 414.863 80.9674 440.49C77.7315 471.432 76.0045 500.603 75.3265 527.686C72.2433 527.778 69.162 527.871 66.0789 527.964C53.9318 502.376 53.1901 485.028 54.9407 473.733C55.6151 469.382 57.4494 460.847 57.8675 448.091C58.1583 439.2 57.6257 432.433 56.9604 424.299C55.5024 406.466 53.7318 402.573 53.4773 388.932C53.2373 376.129 53.1882 369.652 56.6204 365.872C65.6626 355.909 89.186 367.238 90.9694 368.121Z" fill="url(#paint14_linear_14_3410)"/>
<path d="M157.641 279.723C159.692 279.57 161.74 279.419 163.791 279.266C168.627 300.077 165.158 320.263 154.244 327.686C137.19 339.285 105.495 317.433 98.6271 293.637C95.6131 283.192 96.2984 268.121 102.325 265.192C103.997 264.379 106.593 264.253 112.216 267.613C129.008 277.652 129.449 296.626 137.986 298.233C141.778 298.949 147.908 296.372 157.641 279.723Z" fill="url(#paint15_linear_14_3410)"/>
<path d="M110.688 378.063C113.643 372.844 109.932 367.811 109.089 357.926C108.133 346.72 112.186 344.854 116.195 326.285C118.862 313.935 121.419 302.079 118.365 288.2C116.902 281.548 114.419 270.267 105.649 264.818C101.125 262.005 94.9456 262.288 82.7749 262.966C67.7228 263.804 60.1985 264.222 54.5849 267.369C53.7632 267.83 36.6896 277.72 35.5135 293.84C34.3173 310.247 51.0964 312.452 53.3342 334.331C54.3395 344.153 52.5489 359.259 51.3872 369.056C50.2729 378.464 49.5039 380.872 51.2491 383.721C55.452 390.587 68.3172 388.63 94.0476 384.718C104.14 383.181 108.483 381.958 110.688 378.063Z" fill="url(#paint16_linear_14_3410)"/>
<path d="M71.5376 330.81C70.4487 335.075 66.5366 338.259 63.8134 348.633C63.2262 350.872 59.036 366.82 64.4697 370.746C67.6073 373.013 70.4251 368.717 78.042 368.156C91.2398 367.184 97.5279 378.996 106.15 375.769C107.646 375.208 109.62 374.015 111.593 371.275C111.986 373.744 111.918 375.891 110.689 378.065C108.486 381.96 104.141 383.183 94.0485 384.718C68.3181 388.63 55.4529 390.587 51.25 383.721C49.5066 380.874 50.2738 378.464 51.3882 369.056C52.5498 359.258 54.3404 344.151 53.3351 334.331C51.0973 312.452 34.3164 310.247 35.5144 293.84C35.8343 289.454 37.3486 285.55 39.3756 282.149C60.6612 291.32 74.9571 317.41 71.5376 330.81Z" fill="url(#paint17_linear_14_3410)"/>
<path d="M44.6541 363.082L48.9134 365.978C49.6787 365.037 51.4493 363.14 54.2125 362.494C57.3265 361.764 60.9023 362.811 60.9841 363.868C61.0514 364.716 58.8736 365.572 58.5372 365.703C55.8195 366.772 53.8035 365.883 52.7055 367.047C52.3164 367.457 51.8329 368.224 50.7185 368.932C50.4258 369.118 50.1204 369.282 49.9586 369.35C48.1444 370.101 45.034 366.739 44.7668 366.445L44.6541 363.082Z" fill="url(#paint18_linear_14_3410)"/>
<path d="M57.2354 303.606C60.3167 295.749 62.4509 283.718 57.5844 265.854C25.5206 279.307 9.16867 311.199 15.5531 336.48C20.8159 357.322 39.9655 367.472 44.2375 369.609C45.2319 367.2 46.2263 364.792 47.2188 362.384C42.2687 356.514 36.6897 347.835 37.4786 337.93C38.573 324.198 50.9982 319.511 57.2354 303.606Z" fill="url(#paint19_linear_14_3410)"/>
<path d="M81.9854 246.802C81.9854 246.802 81.7327 252.774 79.9912 257.247C78.4169 261.289 70.1419 263.831 68.464 264.733C66.7861 265.635 71.6071 268.273 76.4481 268.79C81.2892 269.309 95.1124 268.138 97.6047 266.184C100.097 264.231 95.6014 264.378 92.1474 263.027C88.6916 261.676 86.6937 254.481 87.3046 251.216C87.9154 247.948 81.9854 246.802 81.9854 246.802Z" fill="url(#paint20_linear_14_3410)"/>
<path d="M89.6423 244.636C92.1546 242.008 92.5054 241.702 92.7781 240.794C93.8761 237.149 91.2202 232.155 87.7371 230.926C87.5553 230.862 85.2193 230.066 84.3286 231.144C83.5705 232.06 84.6849 233.326 84.1559 235.093C83.6596 236.746 82.3144 236.87 79.8184 239.038C77.7624 240.823 76.4862 241.934 76.1917 243.496C75.5845 246.715 79.2439 251.38 82.4834 251.255C83.6487 251.208 83.9668 250.575 89.6423 244.636Z" fill="url(#paint21_linear_14_3410)"/>
<path d="M82.8021 251.752C82.8021 251.752 85.4726 254.971 89.5392 253.906C93.1804 252.954 92.2514 244.054 89.5864 242.633C88.6975 242.159 87.0814 242.197 85.867 242.821C85.149 243.188 84.949 243.572 83.7656 244.148C82.6748 244.681 82.3276 244.607 82.0349 244.983C81.6677 245.451 81.5096 246.462 82.6603 248.897C81.8313 248.272 80.9387 248.14 80.3916 248.554C80.3043 248.62 80.0825 248.852 79.9862 249.156C79.639 250.258 80.7151 251.378 82.8021 251.752Z" fill="url(#paint22_linear_14_3410)"/>
<path d="M387.345 131.244L388.285 136.647L368.937 136.695L201.037 137.119C196.718 137.131 192.746 140.932 192.153 145.611L152.072 430.844C151.476 435.565 158.377 442.772 162.671 443.124L237.158 449.219V449.123L348.58 458.224C348.582 458.224 348.584 458.224 348.586 458.224L348.855 458.344C353.612 458.735 357.977 455.059 358.595 450.073C358.595 450.071 358.595 450.094 358.597 450.092L396.133 145.557C396.743 140.617 392.13 131.231 387.345 131.244Z" fill="url(#paint23_linear_14_3410)"/>
<path d="M354.799 444.139C354.185 449.127 349.822 452.855 345.064 452.466L158.687 437.228C154.395 436.878 151.409 432.767 152.005 428.045L188.441 139.779C189.032 135.101 193.004 131.299 197.319 131.286L384.749 130.736C389.532 130.722 392.924 134.716 392.317 139.656L354.799 444.139Z" fill="url(#paint24_linear_14_3410)"/>
<path d="M357.275 285.609C356.97 288.079 354.803 289.921 352.436 289.829L188.403 283.454C186.238 283.371 184.714 281.472 185.012 279.112L188.237 253.66C188.535 251.302 190.511 249.707 192.678 249.771L356.855 254.626C359.226 254.695 360.904 256.478 360.6 258.946L357.275 285.609Z" fill="white"/>
<path d="M350.924 337.325C350.618 339.801 348.449 341.913 346.083 341.787L182.173 333.166C180.01 333.051 178.504 330.847 178.803 328.485L182.053 302.541C182.351 300.181 184.345 298.158 186.51 298.251L350.52 305.295C352.887 305.398 354.561 307.678 354.256 310.15L350.924 337.325Z" fill="white"/>
<path opacity="0.1" d="M360.613 258.844C360.224 258.71 359.806 258.637 359.361 258.623L195.18 253.77C193.015 253.705 191.037 255.303 190.743 257.655L187.512 283.108C187.505 283.174 187.5 283.236 187.494 283.302C185.829 282.802 184.758 281.122 185.009 279.109L188.24 253.656C188.534 251.304 190.512 249.703 192.677 249.771L356.858 254.624C359.186 254.698 360.857 256.424 360.613 258.844Z" fill="url(#paint25_linear_14_3410)"/>
<path opacity="0.1" d="M354.291 309.577C353.896 309.41 353.471 309.31 353.02 309.29L189.014 302.244C186.849 302.151 184.851 304.178 184.557 306.538L181.301 332.484C181.283 332.65 181.27 332.811 181.27 332.978C179.605 332.405 178.547 330.498 178.798 328.485L182.054 302.539C182.348 300.179 184.344 298.152 186.511 298.245L350.517 305.291C352.708 305.392 354.296 307.337 354.291 309.577Z" fill="url(#paint26_linear_14_3410)"/>
<path d="M307.331 379.244C307.815 375.339 305.222 371.743 301.537 371.516L216.688 366.329C213.174 366.114 209.929 369.265 209.451 373.067L205.949 401.169C205.471 404.977 207.909 408.62 211.421 408.875L296.227 415.054C299.91 415.323 303.303 412.011 303.788 408.101L307.331 379.244Z" fill="url(#paint27_linear_14_3410)"/>
<path d="M313.739 189.906C312.621 198.889 308.287 206.998 302.125 212.962C295.484 219.394 286.736 223.308 277.64 223.12C268.588 222.935 260.97 218.724 256.078 212.149C251.566 206.088 249.355 198.012 250.462 189.18C252.766 170.804 268.621 155.949 286.02 155.994C303.585 156.034 316.063 171.216 313.739 189.906Z" fill="url(#paint28_linear_14_3410)"/>
<path d="M296.82 179.695C295.817 187.744 288.839 194.193 281.264 194.097C273.72 194 268.437 187.443 269.435 179.453C270.435 171.464 277.341 165.02 284.889 165.057C292.47 165.094 297.823 171.646 296.82 179.695Z" fill="white"/>
<path d="M302.126 212.962C295.485 219.394 286.738 223.308 277.641 223.121C268.59 222.935 260.971 218.725 256.079 212.149C261.678 203.843 270.913 198.318 280.721 198.454C290.581 198.589 298.529 204.408 302.126 212.962Z" fill="white"/>
<path opacity="0.4" d="M392.315 139.654L354.799 444.138C354.185 449.124 349.544 452.831 344.788 452.442L232.848 443.29C227.531 437.492 223.152 430.536 220.027 422.187C218.492 418.093 217.369 413.676 216.622 409.03C214.544 396.173 215.349 381.558 218.38 367.213C220.71 356.169 224.364 345.268 229.042 335.43C232.783 327.565 237.182 320.374 242.096 314.331C245.633 309.981 249.46 305.756 253.496 301.611C258.362 296.61 263.534 291.728 268.87 286.89C281.302 275.611 294.615 264.583 306.94 252.938C335.379 226.074 358.451 196.057 352.9 153.228C352.721 151.878 350.989 141.548 348.775 130.839L384.471 130.735C389.252 130.721 392.924 134.716 392.315 139.654Z" fill="white"/>
<defs>
<linearGradient id="paint0_linear_14_3410" x1="340.855" y1="390.939" x2="489.01" y2="15.1594" gradientUnits="userSpaceOnUse">
<stop offset="0.00359712" stop-color="#E38DDD"/>
<stop offset="1" stop-color="#9571F6"/>
</linearGradient>
<linearGradient id="paint1_linear_14_3410" x1="242.563" y1="353.242" x2="500.107" y2="353.242" gradientUnits="userSpaceOnUse">
<stop stop-color="#FF9085"/>
<stop offset="1" stop-color="#FB6FBB"/>
</linearGradient>
<linearGradient id="paint2_linear_14_3410" x1="308.655" y1="288.592" x2="384.781" y2="296.391" gradientUnits="userSpaceOnUse">
<stop stop-color="#444B8C"/>
<stop offset="0.9964" stop-color="#26264F"/>
</linearGradient>
<linearGradient id="paint3_linear_14_3410" x1="241.674" y1="84.5481" x2="452.565" y2="758.809" gradientUnits="userSpaceOnUse">
<stop stop-color="#444B8C"/>
<stop offset="0.9964" stop-color="#26264F"/>
</linearGradient>
<linearGradient id="paint4_linear_14_3410" x1="312.113" y1="67.7636" x2="558.644" y2="694.81" gradientUnits="userSpaceOnUse">
<stop stop-color="#FFC444"/>
<stop offset="0.9964" stop-color="#F36F56"/>
</linearGradient>
<linearGradient id="paint5_linear_14_3410" x1="-1618.03" y1="1840.45" x2="-1458.03" y2="1698.76" gradientUnits="userSpaceOnUse">
<stop stop-color="#311944"/>
<stop offset="1" stop-color="#893976"/>
</linearGradient>
<linearGradient id="paint6_linear_14_3410" x1="46.3058" y1="166.612" x2="174.215" y2="57.6026" gradientUnits="userSpaceOnUse">
<stop stop-color="#FF9085"/>
<stop offset="1" stop-color="#FB6FBB"/>
</linearGradient>
<linearGradient id="paint7_linear_14_3410" x1="168.993" y1="268.355" x2="143.464" y2="292.759" gradientUnits="userSpaceOnUse">
<stop stop-color="#FFC444"/>
<stop offset="0.9964" stop-color="#F36F56"/>
</linearGradient>
<linearGradient id="paint8_linear_14_3410" x1="109.513" y1="515.397" x2="109.743" y2="457.7" gradientUnits="userSpaceOnUse">
<stop stop-color="#AA80F9"/>
<stop offset="0.9964" stop-color="#6165D7"/>
</linearGradient>
<linearGradient id="paint9_linear_14_3410" x1="104.146" y1="533.938" x2="101.224" y2="504.158" gradientUnits="userSpaceOnUse">
<stop stop-color="#FFC444"/>
<stop offset="0.9964" stop-color="#F36F56"/>
</linearGradient>
<linearGradient id="paint10_linear_14_3410" x1="77.5681" y1="515.27" x2="77.7974" y2="457.573" gradientUnits="userSpaceOnUse">
<stop stop-color="#AA80F9"/>
<stop offset="0.9964" stop-color="#6165D7"/>
</linearGradient>
<linearGradient id="paint11_linear_14_3410" x1="71.7701" y1="537.114" x2="68.848" y2="507.333" gradientUnits="userSpaceOnUse">
<stop stop-color="#FFC444"/>
<stop offset="0.9964" stop-color="#F36F56"/>
</linearGradient>
<linearGradient id="paint12_linear_14_3410" x1="103.167" y1="383.713" x2="80.758" y2="491.303" gradientUnits="userSpaceOnUse">
<stop stop-color="#311944"/>
<stop offset="1" stop-color="#893976"/>
</linearGradient>
<linearGradient id="paint13_linear_14_3410" x1="113.078" y1="436.583" x2="83.2165" y2="438.831" gradientUnits="userSpaceOnUse">
<stop stop-color="#311944"/>
<stop offset="1" stop-color="#893976"/>
</linearGradient>
<linearGradient id="paint14_linear_14_3410" x1="96.5735" y1="442.559" x2="51.241" y2="445.972" gradientUnits="userSpaceOnUse">
<stop stop-color="#311944"/>
<stop offset="1" stop-color="#893976"/>
</linearGradient>
<linearGradient id="paint15_linear_14_3410" x1="132.354" y1="283.358" x2="94.4752" y2="511.817" gradientUnits="userSpaceOnUse">
<stop stop-color="#AA80F9"/>
<stop offset="0.9964" stop-color="#6165D7"/>
</linearGradient>
<linearGradient id="paint16_linear_14_3410" x1="61.0758" y1="534.92" x2="42.7107" y2="766.05" gradientUnits="userSpaceOnUse">
<stop stop-color="#AA80F9"/>
<stop offset="0.9964" stop-color="#6165D7"/>
</linearGradient>
<linearGradient id="paint17_linear_14_3410" x1="5.9659" y1="456.055" x2="104.063" y2="298.25" gradientUnits="userSpaceOnUse">
<stop stop-color="#AA80F9"/>
<stop offset="0.9964" stop-color="#6165D7"/>
</linearGradient>
<linearGradient id="paint18_linear_14_3410" x1="37.68" y1="343.233" x2="58.1055" y2="369.146" gradientUnits="userSpaceOnUse">
<stop stop-color="#FFC444"/>
<stop offset="0.9964" stop-color="#F36F56"/>
</linearGradient>
<linearGradient id="paint19_linear_14_3410" x1="21.4727" y1="531.773" x2="3.10767" y2="762.903" gradientUnits="userSpaceOnUse">
<stop stop-color="#AA80F9"/>
<stop offset="0.9964" stop-color="#6165D7"/>
</linearGradient>
<linearGradient id="paint20_linear_14_3410" x1="91.2611" y1="275.602" x2="71.6939" y2="252.739" gradientUnits="userSpaceOnUse">
<stop stop-color="#FFC444"/>
<stop offset="0.9964" stop-color="#F36F56"/>
</linearGradient>
<linearGradient id="paint21_linear_14_3410" x1="77.4493" y1="266.764" x2="88.2429" y2="233.418" gradientUnits="userSpaceOnUse">
<stop stop-color="#444B8C"/>
<stop offset="0.9964" stop-color="#3E4177"/>
</linearGradient>
<linearGradient id="paint22_linear_14_3410" x1="102.002" y1="254.996" x2="74.3835" y2="243.451" gradientUnits="userSpaceOnUse">
<stop stop-color="#FFC444"/>
<stop offset="0.9964" stop-color="#F36F56"/>
</linearGradient>
<linearGradient id="paint23_linear_14_3410" x1="152.037" y1="294.809" x2="396.188" y2="294.809" gradientUnits="userSpaceOnUse">
<stop stop-color="#311944"/>
<stop offset="1" stop-color="#893976"/>
</linearGradient>
<linearGradient id="paint24_linear_14_3410" x1="300.473" y1="806.135" x2="267.479" y2="269.425" gradientUnits="userSpaceOnUse">
<stop offset="0.003597" stop-color="#F36F56"/>
<stop offset="1" stop-color="#FFC444"/>
</linearGradient>
<linearGradient id="paint25_linear_14_3410" x1="184.972" y1="266.537" x2="360.636" y2="266.537" gradientUnits="userSpaceOnUse">
<stop offset="0.003597" stop-color="#F36F56"/>
<stop offset="1" stop-color="#FFC444"/>
</linearGradient>
<linearGradient id="paint26_linear_14_3410" x1="178.763" y1="315.611" x2="354.291" y2="315.611" gradientUnits="userSpaceOnUse">
<stop offset="0.003597" stop-color="#F36F56"/>
<stop offset="1" stop-color="#FFC444"/>
</linearGradient>
<linearGradient id="paint27_linear_14_3410" x1="265.039" y1="333.73" x2="220.693" y2="597.829" gradientUnits="userSpaceOnUse">
<stop offset="0.003597" stop-color="#F36F56"/>
<stop offset="1" stop-color="#FFC444"/>
</linearGradient>
<linearGradient id="paint28_linear_14_3410" x1="277.946" y1="57.8615" x2="287.446" y2="323.533" gradientUnits="userSpaceOnUse">
<stop offset="0.003597" stop-color="#F36F56"/>
<stop offset="1" stop-color="#FFC444"/>
</linearGradient>
</defs>
</svg>
