<svg width="229" height="180" viewBox="0 0 229 180" fill="none" xmlns="http://www.w3.org/2000/svg">
<g filter="url(#filter0_d_128_27)">
<path d="M50.9847 104.857L50.9836 104.857C45.5604 108.358 40.0162 111.13 34.3893 113.096L33.1223 113.539L33.7908 112.375C34.8189 110.585 35.8475 108.681 36.8384 106.737C36.8387 106.736 36.839 106.736 36.8394 106.735L42.6053 95.1659L33.3757 86.0479L33.3748 86.0471C28.1707 80.8815 21.8652 72.3826 21.8652 61.2087C21.8652 49.3845 29.0027 38.5373 40.245 30.6681C51.4921 22.7957 66.8962 17.8626 83.5739 17.8626C100.252 17.8626 115.656 22.7957 126.903 30.6681C138.145 38.5373 145.283 49.3845 145.283 61.2087C145.283 73.033 138.145 83.8802 126.903 91.7493C115.656 99.6217 100.252 104.555 83.5739 104.555C77.2242 104.555 70.8749 103.824 64.7179 102.4L50.9847 104.857ZM50.9847 104.857L57.3493 100.725L64.7161 102.4L50.9847 104.857ZM207.171 135.145L206.912 135.399L207.074 135.724C210.019 141.633 213.615 146.873 216.492 150.647C217.93 152.535 219.191 154.058 220.102 155.118C220.558 155.648 220.926 156.063 221.187 156.349C221.317 156.492 221.421 156.604 221.496 156.683C221.533 156.722 221.564 156.755 221.588 156.779C221.59 156.782 221.597 156.788 221.605 156.797C221.613 156.804 221.622 156.813 221.632 156.822C223.892 159.238 224.503 162.766 223.206 165.831C221.868 168.902 218.872 170.884 215.555 170.884C195.179 170.884 178.785 163.167 167.932 156.122L167.753 156.006L167.547 156.054C160.314 157.729 152.701 158.643 144.783 158.643C111.945 158.643 83.9438 143.252 72.0386 121.489L71.9156 121.264L71.6613 121.233C67.9646 120.775 64.3473 120.166 60.8467 119.367L60.6398 119.32L60.4621 119.436C49.6105 126.518 33.1786 134.197 12.8396 134.197C9.51882 134.197 6.48793 132.212 5.18986 129.147L5.18788 129.142C3.85356 126.077 4.50142 122.54 6.77693 120.12C7.15776 119.721 15.4727 110.656 21.2825 98.9986L21.4439 98.6746L21.1866 98.4201C10.7433 88.0907 4.50258 75.2063 4.50258 61.2087C4.50258 27.7811 39.7646 0.5 83.5739 0.5C116.45 0.5 144.566 15.9291 156.509 37.7685L156.633 37.9948L156.889 38.0251C194.89 42.5228 223.854 67.6818 223.854 97.9339C223.854 111.97 217.613 124.854 207.171 135.145ZM194.981 122.773L194.982 122.772C200.186 117.607 206.491 109.108 206.491 97.9339C206.491 88.3498 201.786 79.4736 194.012 72.3128C186.238 65.1527 175.377 59.6849 162.987 56.8954L162.317 56.7445L162.379 57.4284C162.403 57.6827 162.427 57.9349 162.451 58.1856C162.549 59.1991 162.645 60.1898 162.645 61.2087C162.645 91.8014 133.113 117.153 94.5002 121.27L93.4711 121.38L94.1967 122.118C105.436 133.55 124.01 141.28 144.783 141.28C151.133 141.28 157.483 140.549 163.64 139.125L171.046 137.413L177.41 141.544L177.411 141.544C182.834 145.045 188.379 147.817 194.006 149.783L195.272 150.226L194.604 149.062C193.576 147.272 192.547 145.367 191.556 143.423C191.556 143.423 191.556 143.423 191.555 143.422L185.789 131.853L194.981 122.773Z" fill="#F24E1E" stroke="#F24E1E"/>
</g>
<defs>
<filter id="filter0_d_128_27" x="0" y="0" width="228.378" height="179.385" filterUnits="userSpaceOnUse" color-interpolation-filters="sRGB">
<feFlood flood-opacity="0" result="BackgroundImageFix"/>
<feColorMatrix in="SourceAlpha" type="matrix" values="0 0 0 0 0 0 0 0 0 0 0 0 0 0 0 0 0 0 127 0" result="hardAlpha"/>
<feOffset dy="4"/>
<feGaussianBlur stdDeviation="2"/>
<feComposite in2="hardAlpha" operator="out"/>
<feColorMatrix type="matrix" values="0 0 0 0 0 0 0 0 0 0 0 0 0 0 0 0 0 0 0.25 0"/>
<feBlend mode="normal" in2="BackgroundImageFix" result="effect1_dropShadow_128_27"/>
<feBlend mode="normal" in="SourceGraphic" in2="effect1_dropShadow_128_27" result="shape"/>
</filter>
</defs>
</svg>
