<svg
          width="208"
          height="208"
          viewBox="0 0 208 208"
          fill="none"
          xmlns="http://www.w3.org/2000/svg"
        >
          <g filter="url(#filter0_d_0_1)">
            <path
              d="M2 35C2 15.67 17.67 0 37 0H167C186.33 0 202 15.67 202 35V165C202 184.33 186.33 200 167 200H37C17.67 200 2 184.33 2 165V35Z"
              fill="#DEE9EF"
            />
          </g>
          <path
            d="M25.75 57.75C29.1667 58.1667 32.625 58.4583 36.125 58.625C39.7083 58.7917 42.9583 58.875 45.875 58.875C49.2917 58.875 52.625 58.7917 55.875 58.625C59.2083 58.5417 62.7083 58.375 66.375 58.125C69.5417 57.9583 73.125 57.75 77.125 57.5C81.125 57.25 85.2917 57 89.625 56.75L90.375 67.625C90.375 68.375 90.4167 69.3333 90.5 70.5C90.5 71.5 90.5 72.75 90.5 74.25C90.5833 75.75 90.6667 77.5 90.75 79.5C87.75 82.0833 85.0417 84.5417 82.625 86.875C80.2917 89.125 78.2917 91.125 76.625 92.875C74.625 94.9583 72.875 96.875 71.375 98.625C69.4583 100.875 67.4167 103.625 65.25 106.875C63.0833 110.042 61.0417 113.167 59.125 116.25C57.2917 119.25 55.7917 121.958 54.625 124.375C53.4583 126.708 52.9583 128.167 53.125 128.75C53.2083 129.167 54.0417 129.417 55.625 129.5C57.2083 129.5 59.125 129.417 61.375 129.25C63.7083 129.083 66.25 128.833 69 128.5C71.8333 128.083 74.4583 127.667 76.875 127.25C79.375 126.75 81.5833 126.25 83.5 125.75C85.4167 125.25 86.6667 124.75 87.25 124.25C88 123.583 88.8333 122.375 89.75 120.625C90.5833 119.125 91.5 117.042 92.5 114.375C93.5833 111.625 94.7917 107.958 96.125 103.375C96.2083 106.792 96.25 109.708 96.25 112.125C96.3333 114.542 96.4583 116.583 96.625 118.25C96.7083 120.167 96.8333 121.75 97 123C97.0833 124.333 97.25 125.833 97.5 127.5C97.6667 128.917 97.875 130.708 98.125 132.875C98.375 135.042 98.7083 137.458 99.125 140.125C93.125 139.375 88.0833 138.875 84 138.625C79.9167 138.292 76.625 138.083 74.125 138C71.2083 137.917 68.875 137.917 67.125 138C65.2917 138.25 62.7917 138.625 59.625 139.125C56.9583 139.542 53.4167 140.208 49 141.125C44.5833 141.958 39.0417 143.083 32.375 144.5C32.2083 142.917 32.0417 141.542 31.875 140.375C31.7083 139.208 31.5417 138.167 31.375 137.25C31.2083 136.333 31.0417 135.458 30.875 134.625C30.7083 133.875 30.5 132.833 30.25 131.5C30.0833 130.333 29.7917 128.917 29.375 127.25C29.0417 125.5 28.625 123.333 28.125 120.75C33.125 115.583 37.25 111.25 40.5 107.75C43.8333 104.167 46.5 101.25 48.5 99C50.8333 96.3333 52.6667 94.2083 54 92.625C55.25 91.0417 56.875 89.125 58.875 86.875C60.5417 84.9583 62.7083 82.5833 65.375 79.75C68.0417 76.8333 71.25 73.375 75 69.375C71.1667 69.2083 67.5833 69.2083 64.25 69.375C61 69.5417 58.1667 69.7917 55.75 70.125C52.9167 70.4583 50.2917 70.9167 47.875 71.5C45.625 72.1667 43.3333 73.25 41 74.75C39 76 36.8333 77.75 34.5 80C32.1667 82.25 29.9583 85.1667 27.875 88.75C27.7083 86 27.5833 83.6667 27.5 81.75C27.4167 79.8333 27.3333 78.25 27.25 77C27.1667 75.5833 27.0833 74.4167 27 73.5C27 72.5833 26.9167 71.375 26.75 69.875C26.5833 68.625 26.4167 67.0417 26.25 65.125C26.0833 63.125 25.9167 60.6667 25.75 57.75ZM140.875 52.625C143.792 52.625 146.417 53.125 148.75 54.125C151.167 55.0417 153.375 56.0833 155.375 57.25C157.458 58.4167 159.417 59.5 161.25 60.5C163.083 61.4167 164.958 61.875 166.875 61.875C168.375 61.7917 170.083 61.5833 172 61.25C173.667 60.9167 175.583 60.4167 177.75 59.75C180 59 182.5 57.9167 185.25 56.5C182.5 59.1667 180.25 61.4167 178.5 63.25C176.833 65 175.542 66.4583 174.625 67.625C173.542 68.9583 172.75 70 172.25 70.75C171.75 71.6667 171 73.0417 170 74.875C169.083 76.5417 167.833 78.7917 166.25 81.625C164.667 84.375 162.667 88 160.25 92.5C160.25 86.75 159.667 82.2917 158.5 79.125C157.417 75.9583 156.208 73.5417 154.875 71.875C153.292 69.9583 151.5 68.75 149.5 68.25C147.667 68 145.833 68.3333 144 69.25C142.167 70.0833 140.333 71.3333 138.5 73C136.75 74.6667 135.042 76.6667 133.375 79C131.792 81.25 130.333 83.625 129 86.125C127.75 88.625 126.708 91.1667 125.875 93.75C125.042 96.25 124.5 98.5833 124.25 100.75C124 102.667 123.958 104.917 124.125 107.5C124.292 110 124.667 112.583 125.25 115.25C125.833 117.833 126.583 120.375 127.5 122.875C128.417 125.375 129.542 127.625 130.875 129.625C132.292 131.542 133.875 133.125 135.625 134.375C137.375 135.542 139.375 136.083 141.625 136C144.125 135.833 146.583 135.083 149 133.75C151.083 132.667 153.208 131 155.375 128.75C157.542 126.417 159.417 123.125 161 118.875L179.5 122.25C174.167 128.75 168.958 133.625 163.875 136.875C158.875 140.125 154.375 142.417 150.375 143.75C145.708 145.25 141.292 145.958 137.125 145.875C131.875 145.292 126.958 143.708 122.375 141.125C117.792 138.542 113.833 135.417 110.5 131.75C107.25 128 104.708 123.917 102.875 119.5C101.042 115.083 100.25 110.75 100.5 106.5C100.667 103.667 101.25 100.375 102.25 96.625C103.25 92.7917 104.583 88.875 106.25 84.875C108 80.875 110.083 76.9583 112.5 73.125C114.917 69.2917 117.583 65.875 120.5 62.875C123.417 59.7917 126.583 57.3333 130 55.5C133.5 53.5833 137.125 52.625 140.875 52.625Z"
            fill="#5D7EEC"
          />
          <defs>
            <filter
              id="filter0_d_0_1"
              x="0"
              y="0"
              width="208"
              height="208"
              filterUnits="userSpaceOnUse"
              color-interpolation-filters="sRGB"
            >
              <feFlood flood-opacity="0" result="BackgroundImageFix" />
              <feColorMatrix
                in="SourceAlpha"
                type="matrix"
                values="0 0 0 0 0 0 0 0 0 0 0 0 0 0 0 0 0 0 127 0"
                result="hardAlpha"
              />
              <feOffset dx="2" dy="4" />
              <feGaussianBlur stdDeviation="2" />
              <feComposite in2="hardAlpha" operator="out" />
              <feColorMatrix
                type="matrix"
                values="0 0 0 0 0.364706 0 0 0 0 0.494118 0 0 0 0 0.92549 0 0 0 0.5 0"
              />
              <feBlend
                mode="normal"
                in2="BackgroundImageFix"
                result="effect1_dropShadow_0_1"
              />
              <feBlend
                mode="normal"
                in="SourceGraphic"
                in2="effect1_dropShadow_0_1"
                result="shape"
              />
            </filter>
          </defs>
        </svg>